<?xml version="1.0" encoding="UTF-8"?>
<!DOCTYPE svg PUBLIC "-//W3C//DTD SVG 1.1//EN" "http://www.w3.org/Graphics/SVG/1.1/DTD/svg11.dtd">
<svg xmlns="http://www.w3.org/2000/svg" version="1.1" width="288px" height="336px" style="shape-rendering:geometricPrecision; text-rendering:geometricPrecision; image-rendering:optimizeQuality; fill-rule:evenodd; clip-rule:evenodd" xmlns:xlink="http://www.w3.org/1999/xlink">
<g><path style="opacity:1" fill="#fefeff" d="M -0.5,-0.5 C 87.1667,-0.5 174.833,-0.5 262.5,-0.5C 233.19,27.1916 204.19,55.3583 175.5,84C 167.649,91.352 159.649,98.5186 151.5,105.5C 137.649,90.8168 123.983,75.9835 110.5,61C 83.5061,61.1146 56.5061,61.448 29.5,62C 53.2977,88.7995 77.4643,115.299 102,141.5C 103.555,143.443 104.722,145.61 105.5,148C 104.015,150.156 102.515,152.323 101,154.5C 67.9722,187.861 34.6389,220.861 1,253.5C 0.823821,257.688 0.323821,261.688 -0.5,265.5C -0.5,176.833 -0.5,88.1667 -0.5,-0.5 Z"/></g>
<g><path style="opacity:1" fill="#fefeff" d="M 263.5,-0.5 C 271.5,-0.5 279.5,-0.5 287.5,-0.5C 287.5,82.8333 287.5,166.167 287.5,249.5C 262.032,221.862 236.699,194.029 211.5,166C 208.788,165.262 206.455,165.929 204.5,168C 191.453,179.379 179.453,191.712 168.5,205C 180.615,222.794 194.615,239.127 210.5,254C 232.5,254.667 254.5,254.667 276.5,254C 280.344,253.764 284.011,252.93 287.5,251.5C 287.5,279.5 287.5,307.5 287.5,335.5C 192.167,335.5 96.8333,335.5 1.5,335.5C 9.27004,328.903 16.9367,322.07 24.5,315C 104.348,236.985 184.348,159.152 264.5,81.5C 265.666,57.1735 265.833,32.8402 265,8.5C 264.741,5.41328 264.241,2.41328 263.5,-0.5 Z"/></g>
<g><path style="opacity:1" fill="#627bff" d="M 262.5,-0.5 C 262.833,-0.5 263.167,-0.5 263.5,-0.5C 264.241,2.41328 264.741,5.41328 265,8.5C 265.833,32.8402 265.666,57.1735 264.5,81.5C 184.348,159.152 104.348,236.985 24.5,315C 16.9367,322.07 9.27004,328.903 1.5,335.5C 0.833333,335.5 0.166667,335.5 -0.5,335.5C -0.5,312.167 -0.5,288.833 -0.5,265.5C 0.323821,261.688 0.823821,257.688 1,253.5C 34.6389,220.861 67.9722,187.861 101,154.5C 102.515,152.323 104.015,150.156 105.5,148C 104.722,145.61 103.555,143.443 102,141.5C 77.4643,115.299 53.2977,88.7995 29.5,62C 56.5061,61.448 83.5061,61.1146 110.5,61C 123.983,75.9835 137.649,90.8168 151.5,105.5C 159.649,98.5186 167.649,91.352 175.5,84C 204.19,55.3583 233.19,27.1916 262.5,-0.5 Z"/></g>
<g><path style="opacity:1" fill="#627bff" d="M 287.5,249.5 C 287.5,250.167 287.5,250.833 287.5,251.5C 284.011,252.93 280.344,253.764 276.5,254C 254.5,254.667 232.5,254.667 210.5,254C 194.615,239.127 180.615,222.794 168.5,205C 179.453,191.712 191.453,179.379 204.5,168C 206.455,165.929 208.788,165.262 211.5,166C 236.699,194.029 262.032,221.862 287.5,249.5 Z"/></g>
</svg>
